<svg width="503" height="121" viewBox="0 0 503 121" fill="none" xmlns="http://www.w3.org/2000/svg">
<path d="M357.18 77.404C357.18 75.01 357.967 72.973 359.541 71.293C361.154 69.571 363.082 68.71 365.325 68.71H392V119.74H384.269V105.25H365.325C363.082 105.25 361.154 104.41 359.541 102.73C357.967 101.008 357.18 98.95 357.18 96.556V77.404ZM364.97 77.404V96.556C364.97 96.85 365.089 96.997 365.325 96.997H383.856C384.131 96.997 384.269 96.85 384.269 96.556V77.404C384.269 77.11 384.131 76.963 383.856 76.963H365.325C365.089 76.963 364.97 77.11 364.97 77.404Z" fill="url(#paint0_linear_2_18)"/>
<path d="M404.161 76.018H419.364V82.6204H404.161C403.941 82.6204 403.831 82.738 403.831 82.9732V105.25H397.646V82.9732C397.646 81.058 398.275 79.4284 399.534 78.0844C400.825 76.7068 402.367 76.018 404.161 76.018ZM422.589 105.25V76.018H428.774V105.25H422.589ZM422.589 66.442H428.774V73.0948H422.589V66.442ZM454.902 76.018C456.696 76.018 458.222 76.7068 459.482 78.0844C460.772 79.4284 461.417 81.058 461.417 82.9732V105.25H440.124C438.33 105.25 436.788 104.578 435.497 103.234C434.238 101.856 433.609 100.21 433.609 98.2948V87.3076H455.233V82.9732C455.233 82.738 455.122 82.6204 454.902 82.6204H433.609V76.018H454.902ZM455.233 98.6476V93.9604H439.794V98.2948C439.794 98.53 439.904 98.6476 440.124 98.6476H455.233Z" fill="white"/>
<path d="M432.06 111.928V111.008H437.454V111.928H435.294V119.74H434.22V111.928H432.06ZM443.201 111.008V111.915H439.944V114.889H442.847V115.784H439.944V118.833H443.201V119.74H438.87V111.008H443.201ZM448.571 119.816C447.398 119.816 446.411 119.396 445.608 118.556C444.806 117.716 444.404 116.653 444.404 115.368C444.404 114.074 444.806 113.012 445.608 112.18C446.411 111.34 447.398 110.92 448.571 110.92C449.421 110.92 450.176 111.134 450.837 111.563C451.506 111.991 451.997 112.608 452.312 113.415H451.014C450.526 112.432 449.712 111.941 448.571 111.941C447.681 111.941 446.945 112.256 446.364 112.886C445.789 113.507 445.502 114.335 445.502 115.368C445.502 116.401 445.789 117.233 446.364 117.863C446.945 118.493 447.681 118.808 448.571 118.808C449.114 118.808 449.598 118.682 450.023 118.43C450.447 118.169 450.778 117.8 451.014 117.321H452.312C451.997 118.127 451.506 118.745 450.837 119.173C450.176 119.601 449.421 119.816 448.571 119.816ZM459.198 111.008H460.284V119.74H459.198V115.796H455.078V119.74H454.004V111.008H455.078V114.889H459.198V111.008Z" fill="white"/>
<path d="M41.1922 20.25V24.9H26.4422V35.15H37.9422V39.8H26.4422V55H20.7422V20.25H41.1922ZM54.1746 20.25V55H48.4746V20.25H54.1746ZM69.3582 50.4H81.1082V55H63.6582V20.25H69.3582V50.4ZM93.575 24.85V35.05H105.575V39.7H93.575V50.35H107.075V55H87.875V20.2H107.075V24.85H93.575ZM129.184 37.55C129.184 34.15 129.967 31.1 131.534 28.4C133.134 25.7 135.284 23.6 137.984 22.1C140.717 20.5667 143.701 19.8 146.934 19.8C150.634 19.8 153.917 20.7167 156.784 22.55C159.684 24.35 161.784 26.9167 163.084 30.25H156.234C155.334 28.4167 154.084 27.05 152.484 26.15C150.884 25.25 149.034 24.8 146.934 24.8C144.634 24.8 142.584 25.3167 140.784 26.35C138.984 27.3833 137.567 28.8667 136.534 30.8C135.534 32.7333 135.034 34.9833 135.034 37.55C135.034 40.1167 135.534 42.3667 136.534 44.3C137.567 46.2333 138.984 47.7333 140.784 48.8C142.584 49.8333 144.634 50.35 146.934 50.35C149.034 50.35 150.884 49.9 152.484 49C154.084 48.1 155.334 46.7333 156.234 44.9H163.084C161.784 48.2333 159.684 50.8 156.784 52.6C153.917 54.4 150.634 55.3 146.934 55.3C143.667 55.3 140.684 54.55 137.984 53.05C135.284 51.5167 133.134 49.4 131.534 46.7C129.967 44 129.184 40.95 129.184 37.55ZM187.606 55.35C184.373 55.35 181.389 54.6 178.656 53.1C175.956 51.5667 173.806 49.45 172.206 46.75C170.639 44.0167 169.856 40.95 169.856 37.55C169.856 34.15 170.639 31.1 172.206 28.4C173.806 25.7 175.956 23.6 178.656 22.1C181.389 20.5667 184.373 19.8 187.606 19.8C190.873 19.8 193.856 20.5667 196.556 22.1C199.289 23.6 201.439 25.7 203.006 28.4C204.573 31.1 205.356 34.15 205.356 37.55C205.356 40.95 204.573 44.0167 203.006 46.75C201.439 49.45 199.289 51.5667 196.556 53.1C193.856 54.6 190.873 55.35 187.606 55.35ZM187.606 50.4C189.906 50.4 191.956 49.8833 193.756 48.85C195.556 47.7833 196.956 46.2833 197.956 44.35C198.989 42.3833 199.506 40.1167 199.506 37.55C199.506 34.9833 198.989 32.7333 197.956 30.8C196.956 28.8667 195.556 27.3833 193.756 26.35C191.956 25.3167 189.906 24.8 187.606 24.8C185.306 24.8 183.256 25.3167 181.456 26.35C179.656 27.3833 178.239 28.8667 177.206 30.8C176.206 32.7333 175.706 34.9833 175.706 37.55C175.706 40.1167 176.206 42.3833 177.206 44.35C178.239 46.2833 179.656 47.7833 181.456 48.85C183.256 49.8833 185.306 50.4 187.606 50.4ZM249.565 20.25V55H243.865V31.2L233.265 55H229.315L218.665 31.2V55H212.965V20.25H219.115L231.315 47.5L243.465 20.25H249.565ZM283.357 30.6C283.357 32.3667 282.94 34.0333 282.107 35.6C281.273 37.1667 279.94 38.45 278.107 39.45C276.273 40.4167 273.923 40.9 271.057 40.9H264.757V55H259.057V20.25H271.057C273.723 20.25 275.973 20.7167 277.807 21.65C279.673 22.55 281.057 23.7833 281.957 25.35C282.89 26.9167 283.357 28.6667 283.357 30.6ZM271.057 36.25C273.223 36.25 274.84 35.7667 275.907 34.8C276.973 33.8 277.507 32.4 277.507 30.6C277.507 26.8 275.357 24.9 271.057 24.9H264.757V36.25H271.057ZM308.843 55L300.843 41.1H296.493V55H290.793V20.25H302.793C305.46 20.25 307.71 20.7167 309.543 21.65C311.41 22.5833 312.793 23.8333 313.693 25.4C314.626 26.9667 315.093 28.7167 315.093 30.65C315.093 32.9167 314.426 34.9833 313.093 36.85C311.793 38.6833 309.776 39.9333 307.043 40.6L315.643 55H308.843ZM296.493 36.55H302.793C304.926 36.55 306.526 36.0167 307.593 34.95C308.693 33.8833 309.243 32.45 309.243 30.65C309.243 28.85 308.71 27.45 307.643 26.45C306.576 25.4167 304.96 24.9 302.793 24.9H296.493V36.55ZM330.085 24.85V35.05H342.085V39.7H330.085V50.35H343.585V55H324.385V20.2H343.585V24.85H330.085ZM364.055 55.35C361.722 55.35 359.622 54.95 357.755 54.15C355.889 53.3167 354.422 52.15 353.355 50.65C352.289 49.15 351.755 47.4 351.755 45.4H357.855C357.989 46.9 358.572 48.1333 359.605 49.1C360.672 50.0667 362.155 50.55 364.055 50.55C366.022 50.55 367.555 50.0833 368.655 49.15C369.755 48.1833 370.305 46.95 370.305 45.45C370.305 44.2833 369.955 43.3333 369.255 42.6C368.589 41.8667 367.739 41.3 366.705 40.9C365.705 40.5 364.305 40.0667 362.505 39.6C360.239 39 358.389 38.4 356.955 37.8C355.555 37.1667 354.355 36.2 353.355 34.9C352.355 33.6 351.855 31.8667 351.855 29.7C351.855 27.7 352.355 25.95 353.355 24.45C354.355 22.95 355.755 21.8 357.555 21C359.355 20.2 361.439 19.8 363.805 19.8C367.172 19.8 369.922 20.65 372.055 22.35C374.222 24.0167 375.422 26.3167 375.655 29.25H369.355C369.255 27.9833 368.655 26.9 367.555 26C366.455 25.1 365.005 24.65 363.205 24.65C361.572 24.65 360.239 25.0667 359.205 25.9C358.172 26.7333 357.655 27.9333 357.655 29.5C357.655 30.5667 357.972 31.45 358.605 32.15C359.272 32.8167 360.105 33.35 361.105 33.75C362.105 34.15 363.472 34.5833 365.205 35.05C367.505 35.6833 369.372 36.3167 370.805 36.95C372.272 37.5833 373.505 38.5667 374.505 39.9C375.539 41.2 376.055 42.95 376.055 45.15C376.055 46.9167 375.572 48.5833 374.605 50.15C373.672 51.7167 372.289 52.9833 370.455 53.95C368.655 54.8833 366.522 55.35 364.055 55.35ZM396.231 55.35C393.898 55.35 391.798 54.95 389.931 54.15C388.065 53.3167 386.598 52.15 385.531 50.65C384.465 49.15 383.931 47.4 383.931 45.4H390.031C390.165 46.9 390.748 48.1333 391.781 49.1C392.848 50.0667 394.331 50.55 396.231 50.55C398.198 50.55 399.731 50.0833 400.831 49.15C401.931 48.1833 402.481 46.95 402.481 45.45C402.481 44.2833 402.131 43.3333 401.431 42.6C400.765 41.8667 399.915 41.3 398.881 40.9C397.881 40.5 396.481 40.0667 394.681 39.6C392.415 39 390.565 38.4 389.131 37.8C387.731 37.1667 386.531 36.2 385.531 34.9C384.531 33.6 384.031 31.8667 384.031 29.7C384.031 27.7 384.531 25.95 385.531 24.45C386.531 22.95 387.931 21.8 389.731 21C391.531 20.2 393.615 19.8 395.981 19.8C399.348 19.8 402.098 20.65 404.231 22.35C406.398 24.0167 407.598 26.3167 407.831 29.25H401.531C401.431 27.9833 400.831 26.9 399.731 26C398.631 25.1 397.181 24.65 395.381 24.65C393.748 24.65 392.415 25.0667 391.381 25.9C390.348 26.7333 389.831 27.9333 389.831 29.5C389.831 30.5667 390.148 31.45 390.781 32.15C391.448 32.8167 392.281 33.35 393.281 33.75C394.281 34.15 395.648 34.5833 397.381 35.05C399.681 35.6833 401.548 36.3167 402.981 36.95C404.448 37.5833 405.681 38.5667 406.681 39.9C407.715 41.2 408.231 42.95 408.231 45.15C408.231 46.9167 407.748 48.5833 406.781 50.15C405.848 51.7167 404.465 52.9833 402.631 53.95C400.831 54.8833 398.698 55.35 396.231 55.35ZM432.807 55.35C429.574 55.35 426.59 54.6 423.857 53.1C421.157 51.5667 419.007 49.45 417.407 46.75C415.84 44.0167 415.057 40.95 415.057 37.55C415.057 34.15 415.84 31.1 417.407 28.4C419.007 25.7 421.157 23.6 423.857 22.1C426.59 20.5667 429.574 19.8 432.807 19.8C436.074 19.8 439.057 20.5667 441.757 22.1C444.49 23.6 446.64 25.7 448.207 28.4C449.774 31.1 450.557 34.15 450.557 37.55C450.557 40.95 449.774 44.0167 448.207 46.75C446.64 49.45 444.49 51.5667 441.757 53.1C439.057 54.6 436.074 55.35 432.807 55.35ZM432.807 50.4C435.107 50.4 437.157 49.8833 438.957 48.85C440.757 47.7833 442.157 46.2833 443.157 44.35C444.19 42.3833 444.707 40.1167 444.707 37.55C444.707 34.9833 444.19 32.7333 443.157 30.8C442.157 28.8667 440.757 27.3833 438.957 26.35C437.157 25.3167 435.107 24.8 432.807 24.8C430.507 24.8 428.457 25.3167 426.657 26.35C424.857 27.3833 423.44 28.8667 422.407 30.8C421.407 32.7333 420.907 34.9833 420.907 37.55C420.907 40.1167 421.407 42.3833 422.407 44.35C423.44 46.2833 424.857 47.7833 426.657 48.85C428.457 49.8833 430.507 50.4 432.807 50.4ZM476.216 55L468.216 41.1H463.866V55H458.166V20.25H470.166C472.833 20.25 475.083 20.7167 476.916 21.65C478.783 22.5833 480.166 23.8333 481.066 25.4C481.999 26.9667 482.466 28.7167 482.466 30.65C482.466 32.9167 481.799 34.9833 480.466 36.85C479.166 38.6833 477.149 39.9333 474.416 40.6L483.016 55H476.216ZM463.866 36.55H470.166C472.299 36.55 473.899 36.0167 474.966 34.95C476.066 33.8833 476.616 32.45 476.616 30.65C476.616 28.85 476.083 27.45 475.016 26.45C473.949 25.4167 472.333 24.9 470.166 24.9H463.866V36.55Z" fill="url(#paint1_linear_2_18)" style="mix-blend-mode:hard-light"/>
<path d="M304.174 88.93C304.754 88.13 305.544 87.48 306.544 86.98C307.564 86.46 308.694 86.2 309.934 86.2C311.394 86.2 312.714 86.55 313.894 87.25C315.074 87.95 316.004 88.95 316.684 90.25C317.364 91.53 317.704 93 317.704 94.66C317.704 96.32 317.364 97.81 316.684 99.13C316.004 100.43 315.064 101.45 313.864 102.19C312.684 102.91 311.374 103.27 309.934 103.27C308.654 103.27 307.514 103.02 306.514 102.52C305.534 102.02 304.754 101.38 304.174 100.6V103H300.754V80.8H304.174V88.93ZM314.224 94.66C314.224 93.52 313.984 92.54 313.504 91.72C313.044 90.88 312.424 90.25 311.644 89.83C310.884 89.39 310.064 89.17 309.184 89.17C308.324 89.17 307.504 89.39 306.724 89.83C305.964 90.27 305.344 90.91 304.864 91.75C304.404 92.59 304.174 93.58 304.174 94.72C304.174 95.86 304.404 96.86 304.864 97.72C305.344 98.56 305.964 99.2 306.724 99.64C307.504 100.08 308.324 100.3 309.184 100.3C310.064 100.3 310.884 100.08 311.644 99.64C312.424 99.18 313.044 98.52 313.504 97.66C313.984 96.8 314.224 95.8 314.224 94.66ZM337.166 86.47L327.026 110.77H323.486L326.846 102.73L320.336 86.47H324.146L328.796 99.07L333.626 86.47H337.166Z" fill="white"/>
<defs>
<linearGradient id="paint0_linear_2_18" x1="410" y1="58" x2="410" y2="121" gradientUnits="userSpaceOnUse">
<stop stop-color="#6C66DB"/>
<stop offset="1" stop-color="#FF03FA"/>
</linearGradient>
<linearGradient id="paint1_linear_2_18" x1="7.27599e+25" y1="-9.81786e+08" x2="7.27599e+25" y2="-9.81786e+08" gradientUnits="userSpaceOnUse">
<stop offset="0.505208" stop-color="#FF00FA"/>
<stop offset="1" stop-color="#6C66DB"/>
</linearGradient>
</defs>
</svg>
