<svg width="183" height="100" viewBox="0 0 183 100" fill="none" xmlns="http://www.w3.org/2000/svg">
<path d="M2 30.8C2 27 3.33333 23.7667 6 21.1C8.73333 18.3667 12 17 15.8 17H61V98H47.9V75H15.8C12 75 8.73333 73.6667 6 71C3.33333 68.2667 2 65 2 61.2V30.8ZM15.2 30.8V61.2C15.2 61.6667 15.4 61.9 15.8 61.9H47.2C47.6667 61.9 47.9 61.6667 47.9 61.2V30.8C47.9 30.3333 47.6667 30.1 47.2 30.1H15.8C15.4 30.1 15.2 30.3333 15.2 30.8Z" fill="url(#paint0_linear_23_2)"/>
<path d="M81.6063 28.6H107.366V39.08H81.6063C81.2329 39.08 81.0463 39.2667 81.0463 39.64V75H70.5663V39.64C70.5663 36.6 71.6329 34.0133 73.7663 31.88C75.9529 29.6933 78.5663 28.6 81.6063 28.6ZM112.832 75V28.6H123.312V75H112.832ZM112.832 13.4H123.312V23.96H112.832V13.4ZM167.584 28.6C170.624 28.6 173.21 29.6933 175.344 31.88C177.53 34.0133 178.624 36.6 178.624 39.64V75H142.544C139.504 75 136.89 73.9333 134.704 71.8C132.57 69.6133 131.504 67 131.504 63.96V46.52H168.144V39.64C168.144 39.2667 167.957 39.08 167.584 39.08H131.504V28.6H167.584ZM168.144 64.52V57.08H141.984V63.96C141.984 64.3333 142.17 64.52 142.544 64.52H168.144Z" fill="white"/>
<path d="M128.88 85.6V84.14H138.02V85.6H134.36V98H132.54V85.6H128.88ZM147.758 84.14V85.58H142.238V90.3H147.158V91.72H142.238V96.56H147.758V98H140.418V84.14H147.758ZM156.856 98.12C154.869 98.12 153.196 97.4533 151.836 96.12C150.476 94.7867 149.796 93.1 149.796 91.06C149.796 89.0067 150.476 87.32 151.836 86C153.196 84.6667 154.869 84 156.856 84C158.296 84 159.576 84.34 160.696 85.02C161.829 85.7 162.662 86.68 163.196 87.96H160.996C160.169 86.4 158.789 85.62 156.856 85.62C155.349 85.62 154.102 86.12 153.116 87.12C152.142 88.1067 151.656 89.42 151.656 91.06C151.656 92.7 152.142 94.02 153.116 95.02C154.102 96.02 155.349 96.52 156.856 96.52C157.776 96.52 158.596 96.32 159.316 95.92C160.036 95.5067 160.596 94.92 160.996 94.16H163.196C162.662 95.44 161.829 96.42 160.696 97.1C159.576 97.78 158.296 98.12 156.856 98.12ZM174.863 84.14H176.703V98H174.863V91.74H167.883V98H166.063V84.14H167.883V90.3H174.863V84.14Z" fill="white"/>
<defs>
<linearGradient id="paint0_linear_23_2" x1="91.5" y1="0" x2="91.5" y2="100" gradientUnits="userSpaceOnUse">
<stop stop-color="#6C66DB"/>
<stop offset="1" stop-color="#FF03FA"/>
</linearGradient>
</defs>
</svg>
